<svg width="20" height="20" viewBox="0 0 20 20" fill="none" xmlns="http://www.w3.org/2000/svg">
<g clip-path="url(#clip0_6_2)">
<path fill-rule="evenodd" clip-rule="evenodd" d="M0 17.1429C0 17.9006 0.30102 18.6273 0.836838 19.1632C1.37266 19.699 2.09938 20 2.85714 20H17.1429C17.9006 20 18.6273 19.699 19.1632 19.1632C19.699 18.6273 20 17.9006 20 17.1429V2.85714C20 2.09938 19.699 1.37266 19.1632 0.836838C18.6273 0.30102 17.9006 -4.76837e-07 17.1429 -4.76837e-07H2.85714C2.09938 -4.76837e-07 1.37266 0.30102 0.836838 0.836838C0.30102 1.37266 0 2.09938 0 2.85714L0 17.1429ZM6.13857 15.5686C6.13857 15.1158 5.95871 14.6816 5.63856 14.3614C5.31841 14.0413 4.88419 13.8614 4.43143 13.8614C3.97867 13.8614 3.54445 14.0413 3.2243 14.3614C2.90414 14.6816 2.72429 15.1158 2.72429 15.5686C2.72429 16.0213 2.90414 16.4556 3.2243 16.7757C3.54445 17.0959 3.97867 17.2757 4.43143 17.2757C4.88419 17.2757 5.31841 17.0959 5.63856 16.7757C5.95871 16.4556 6.13857 16.0213 6.13857 15.5686ZM16.8757 14.14H7.47714V16.9971H16.8757V14.14ZM7.47714 12.2429V9.38571H8.73571C8.07571 8.96429 7.18714 8.03857 7.18714 6.31714C7.18714 4.26286 8.54857 3.14714 11.1386 3.14714C11.2629 3.14714 11.83 3.13571 11.83 3.13571H16.8743V5.99286L11.8314 5.99286C11.1386 5.99286 9.77714 6.13857 9.77714 7.67857C9.77714 9.22 11.4886 9.35 12.6086 9.38571L16.8743 9.38571V12.2429H7.47714Z" fill="black"/>
</g>
<defs>
<clipPath id="clip0_6_2">
<rect width="20" height="20" fill="white"/>
</clipPath>
</defs>
</svg>
