<svg width="131" height="27" fill="none" xmlns="http://www.w3.org/2000/svg"><g clip-path="url(#clip0_2045_379)" fill="#fff"><path d="M130.45 20.675v3.217h-2.698c-2.88-.09-4.419-1.646-4.419-4.567v-7.347h-1.884V9.156h1.884v-3.16h3.983v3.127h3.044v2.814h-3.044v6.993c0 .947.189 1.703 1.645 1.703l1.489.042zm-24.872-4.123v-.213a7.193 7.193 0 016.886-7.52h.576c3.76 0 7.06 2.188 7.06 7.404v1.111h-10.45c.107 2.403 1.407 3.76 3.596 3.76 1.884 0 2.764-.823 3.019-2.024h3.761c-.461 3.135-2.962 4.88-6.92 4.88-4.344-.034-7.528-2.782-7.528-7.398zm10.605-1.736c-.14-2.188-1.242-3.241-3.159-3.241-1.917 0-3.02 1.184-3.291 3.242h6.45zM89.32 16.552v-.213a7.2 7.2 0 016.87-7.52h.576c3.76 0 7.067 2.188 7.067 7.404v1.111h-10.44c.106 2.403 1.406 3.76 3.595 3.76 1.884 0 2.764-.823 3.019-2.024h3.76c-.469 3.135-2.97 4.88-6.927 4.88-4.337-.034-7.52-2.782-7.52-7.398zm10.605-1.736c-.14-2.188-1.242-3.241-3.16-3.241-1.916 0-2.986 1.217-3.29 3.233l6.45.008zM66.504 9.123h4.212l2.576 9.758 2.822-9.758h3.29l2.551 9.758 2.716-9.758h3.858l-4.574 14.498h-3.95l-2.468-9.1-2.641 9.1h-3.999L66.503 9.123zm-13.387 9.939h3.76c.173 1.308.823 2.057 2.55 2.057 1.547 0 2.263-.584 2.263-1.58 0-.995-.822-1.415-2.929-1.711-3.859-.584-5.348-1.695-5.348-4.525 0-3.02 2.765-4.517 5.76-4.517 3.217 0 5.644 1.168 5.99 4.5h-3.711a1.957 1.957 0 00-2.148-1.769h-.123c-1.3 0-2.057.61-2.057 1.498s.7 1.275 2.822 1.58c3.604.542 5.62 1.456 5.62 4.558s-2.28 4.764-6.097 4.764c-3.818 0-6.245-1.72-6.352-4.855zM37.138 9.123h3.983v2.296a4.986 4.986 0 014.698-2.633c2.822 0 4.87 1.72 4.87 5.644v9.224h-3.932v-8.648c0-1.966-.765-2.904-2.543-2.904a2.864 2.864 0 00-3.102 2.616c-.02.175-.02.352 0 .527v8.376h-3.974V9.123zm-7.685-3.645a2.006 2.006 0 112.074 1.934h-.074a1.876 1.876 0 01-1.991-1.761 1.217 1.217 0 01-.009-.173zm0 3.645h4.024V23.62H29.47l-.017-14.497zM14.29 3.808h12.72V7.32h-8.228v5.241h6.516v3.382h-6.524v7.676H14.29V3.808zm-7.677 6.483c0 1.243 0 2.757-1.711 3.374 1.752.6 1.711 1.876 1.711 3.209v4.936c0 .938.378 1.506 1.053 1.646.148.05.305.072.46.066h1.647v3.29H7.057c-2.896 0-4.492-1.645-4.492-4.697v-5.842a1.201 1.201 0 00-1.177-1.12H.681v-2.887h.707a1.193 1.193 0 001.177-1.152V5.19c0-3.003 1.563-4.624 4.492-4.624h2.74v3.242H8.152c-.157 0-.312.025-.461.074-.675.173-1.053.732-1.053 1.645l-.025 4.764z"/></g><defs><clipPath id="clip0_2045_379"><path fill="#fff" transform="translate(.68 .566)" d="M0 0h130v26.329H0z"/></clipPath></defs></svg>