<svg width="20" height="21" fill="none" xmlns="http://www.w3.org/2000/svg"><g clip-path="url(#clip0_2045_402)" fill="#fff"><path d="M10 2.367c2.672 0 2.988.011 4.04.058.976.043 1.503.207 1.855.344.464.18.8.398 1.148.746.352.352.566.684.746 1.149.137.351.3.882.344 1.855.047 1.055.058 1.371.058 4.04 0 2.671-.011 2.987-.058 4.038-.043.977-.207 1.504-.344 1.856-.18.465-.398.8-.746 1.148a3.077 3.077 0 01-1.148.746c-.352.137-.883.3-1.856.344-1.055.047-1.371.059-4.039.059-2.672 0-2.988-.012-4.04-.06-.976-.042-1.503-.206-1.855-.343a3.1 3.1 0 01-1.148-.746 3.076 3.076 0 01-.746-1.148c-.137-.352-.3-.883-.344-1.856-.047-1.054-.058-1.37-.058-4.039 0-2.672.011-2.988.058-4.039.043-.977.207-1.504.344-1.855.18-.465.398-.801.746-1.149a3.076 3.076 0 011.148-.746c.352-.137.883-.3 1.856-.344 1.05-.047 1.367-.058 4.039-.058zm0-1.801c-2.715 0-3.055.012-4.121.059-1.063.046-1.793.218-2.426.464A4.88 4.88 0 001.68 2.246a4.9 4.9 0 00-1.157 1.77C.277 4.651.105 5.377.06 6.44.012 7.51 0 7.85 0 10.566s.012 3.055.059 4.121c.046 1.063.218 1.793.464 2.426a4.88 4.88 0 001.157 1.773 4.888 4.888 0 001.77 1.153c.636.246 1.362.417 2.425.464 1.066.047 1.406.059 4.121.059 2.715 0 3.055-.012 4.121-.059 1.063-.047 1.793-.218 2.426-.464a4.888 4.888 0 001.77-1.153 4.887 4.887 0 001.152-1.77c.246-.636.418-1.363.465-2.425.047-1.067.058-1.406.058-4.121 0-2.715-.011-3.055-.058-4.121-.047-1.063-.22-1.793-.465-2.426a4.683 4.683 0 00-1.145-1.777 4.889 4.889 0 00-1.77-1.153c-.636-.246-1.363-.418-2.425-.465-1.07-.05-1.41-.062-4.125-.062z"/><path d="M10 5.43a5.138 5.138 0 105.137 5.137A5.139 5.139 0 0010 5.429zm0 8.468a3.332 3.332 0 110-6.665 3.332 3.332 0 010 6.665zm6.54-8.672a1.2 1.2 0 11-2.4 0 1.2 1.2 0 012.4 0z"/></g><defs><clipPath id="clip0_2045_402"><path fill="#fff" transform="translate(0 .566)" d="M0 0h20v20H0z"/></clipPath></defs></svg>