<svg width="140" height="30" fill="none" xmlns="http://www.w3.org/2000/svg"><g clip-path="url(#clip0_2045_315)" fill="#111"><path d="M139.752 22.479v3.464h-2.906c-3.102-.097-4.759-1.772-4.759-4.918v-7.912h-2.029v-3.04h2.029V6.671h4.289v3.367h3.278v3.03h-3.278V20.6c0 1.019.204 1.834 1.772 1.834l1.604.044zm-26.786-4.439v-.231a7.74 7.74 0 01.457-2.997 7.738 7.738 0 014.015-4.384 7.747 7.747 0 012.944-.718h.621c4.049 0 7.602 2.357 7.602 7.975v1.196h-11.253c.115 2.587 1.515 4.05 3.872 4.05 2.029 0 2.977-.887 3.252-2.18h4.049c-.496 3.376-3.19 5.254-7.452 5.254-4.678-.035-8.107-2.995-8.107-7.966zm11.421-1.87c-.15-2.357-1.338-3.492-3.402-3.492-2.065 0-3.252 1.276-3.544 3.492h6.946zm-28.93 1.87v-.231a7.751 7.751 0 017.399-8.099h.62c4.049 0 7.611 2.357 7.611 7.975v1.196H99.843c.115 2.587 1.515 4.05 3.872 4.05 2.029 0 2.977-.887 3.252-2.18h4.049c-.505 3.376-3.198 5.254-7.46 5.254-4.67-.035-8.099-2.995-8.099-7.966zm11.421-1.87c-.15-2.357-1.337-3.492-3.402-3.492-2.065 0-3.217 1.312-3.544 3.483l6.946.009zm-35.992-6.132h4.537l2.773 10.509 3.04-10.509h3.544l2.747 10.509 2.924-10.509h4.155L89.68 25.651h-4.253l-2.659-9.8-2.844 9.8h-4.306l-4.732-15.613zM56.47 20.742h4.049c.186 1.409.886 2.215 2.747 2.215 1.666 0 2.437-.63 2.437-1.701 0-1.073-.887-1.524-3.155-1.843-4.156-.63-5.76-1.826-5.76-4.874 0-3.252 2.978-4.864 6.203-4.864 3.465 0 6.079 1.258 6.45 4.846h-3.995a2.11 2.11 0 00-2.313-1.905H63c-1.4 0-2.215.656-2.215 1.613s.753 1.373 3.039 1.701c3.881.585 6.052 1.569 6.052 4.91 0 3.34-2.455 5.13-6.566 5.13s-6.725-1.852-6.84-5.228zM39.262 10.038h4.289v2.472a5.37 5.37 0 015.06-2.835c3.038 0 5.245 1.852 5.245 6.078v9.933H49.62v-9.313c0-2.117-.824-3.127-2.738-3.127a3.083 3.083 0 00-3.34 2.817 2.423 2.423 0 000 .567v9.02h-4.28V10.039zm-8.276-3.925a2.161 2.161 0 112.233 2.082h-.08a2.02 2.02 0 01-2.144-1.896 1.315 1.315 0 01-.009-.186zm0 3.925h4.333v15.613h-4.315l-.018-15.613zm-16.33-5.724h13.698v3.783h-8.86v5.645h7.017v3.642h-7.026v8.267h-4.83V4.314zm-8.267 6.982c0 1.338 0 2.969-1.843 3.633 1.887.647 1.843 2.02 1.843 3.456V23.7c0 1.01.407 1.622 1.134 1.772.16.054.328.078.496.071h1.772v3.545H6.867c-3.119 0-4.838-1.772-4.838-5.06v-6.291a1.294 1.294 0 00-1.267-1.205H0v-3.11h.762a1.285 1.285 0 001.267-1.24v-6.38c0-3.235 1.684-4.98 4.838-4.98h2.95v3.49h-1.77a1.646 1.646 0 00-.497.08c-.726.187-1.134.79-1.134 1.773l-.026 5.13z"/></g><defs><clipPath id="clip0_2045_315"><path fill="#fff" transform="translate(0 .823)" d="M0 0h140v28.354H0z"/></clipPath></defs></svg>