<svg width="20" height="21" fill="none" xmlns="http://www.w3.org/2000/svg"><g clip-path="url(#clip0_2045_409)"><path d="M20 10.566c0-5.523-4.477-10-10-10s-10 4.477-10 10c0 4.991 3.657 9.128 8.438 9.878v-6.987h-2.54v-2.891h2.54V8.363c0-2.506 1.492-3.89 3.777-3.89 1.093 0 2.238.194 2.238.194v2.461h-1.26c-1.243 0-1.63.771-1.63 1.563v1.875h2.773l-.443 2.89h-2.33v6.988c4.78-.75 8.437-4.887 8.437-9.878z" fill="#fff"/></g><defs><clipPath id="clip0_2045_409"><path fill="#fff" transform="translate(0 .566)" d="M0 0h20v20H0z"/></clipPath></defs></svg>