<svg width="20" height="21" fill="none" xmlns="http://www.w3.org/2000/svg"><g clip-path="url(#clip0_2045_399)"><path d="M18.52.566H1.477C.66.566 0 1.21 0 2.007v17.114c0 .797.66 1.445 1.477 1.445H18.52c.816 0 1.48-.648 1.48-1.441V2.007c0-.797-.664-1.441-1.48-1.441zM5.934 17.609h-2.97V8.062h2.97v9.547zM4.449 6.76a1.72 1.72 0 11-.006-3.439 1.72 1.72 0 01.006 3.44zm12.594 10.85h-2.965v-4.64c0-1.106-.02-2.532-1.543-2.532-1.543 0-1.777 1.207-1.777 2.453v4.719H7.797V8.062h2.844v1.305h.039c.394-.75 1.363-1.543 2.804-1.543 3.004 0 3.559 1.976 3.559 4.547v5.238z" fill="#fff"/></g><defs><clipPath id="clip0_2045_399"><path fill="#fff" transform="translate(0 .566)" d="M0 0h20v20H0z"/></clipPath></defs></svg>