<svg width="167" height="41" fill="none" xmlns="http://www.w3.org/2000/svg"><path d="M41.098 10.323h3.8v18.952h-3.8V10.323zm5.928 12.461a7.06 7.06 0 011.124-3.83 6.707 6.707 0 012.99-2.536 6.44 6.44 0 013.849-.385 6.585 6.585 0 013.405 1.896 6.965 6.965 0 011.811 3.536 7.11 7.11 0 01-.394 3.981 6.838 6.838 0 01-2.466 3.082 6.489 6.489 0 01-3.706 1.142 6.367 6.367 0 01-2.547-.511 6.554 6.554 0 01-2.158-1.493 6.821 6.821 0 01-1.43-2.242 7.006 7.006 0 01-.478-2.64zm9.527 0a3.063 3.063 0 00-.523-1.64 2.907 2.907 0 00-1.312-1.066 2.796 2.796 0 00-1.662-.139 2.863 2.863 0 00-1.46.836 3.028 3.028 0 00-.769 1.532 3.09 3.09 0 00.177 1.717 2.97 2.97 0 001.064 1.33 2.818 2.818 0 001.597.499 2.73 2.73 0 001.128-.22c.357-.153.68-.38.95-.669a2.95 2.95 0 00.612-1.005c.135-.375.194-.776.173-1.175h.025zm18.737-6.492v12.342c0 4.354-3.294 6.204-6.626 6.204a6.151 6.151 0 01-3.404-.698 6.429 6.429 0 01-2.538-2.45l3.206-1.915c.26.542.673.99 1.184 1.282a2.795 2.795 0 001.679.357c.37.048.746.01 1.101-.111.355-.12.68-.321.95-.587a2.63 2.63 0 00.618-.95 2.71 2.71 0 00.169-1.132V27.44a4.49 4.49 0 01-1.64 1.288 4.34 4.34 0 01-2.022.391 6.227 6.227 0 01-4.479-1.92 6.677 6.677 0 01-1.855-4.638c0-1.74.667-3.407 1.855-4.637a6.227 6.227 0 014.48-1.92 4.34 4.34 0 012.022.39 4.49 4.49 0 011.639 1.288v-1.311l3.66-.08zm-3.661 6.23a3.234 3.234 0 00-.45-1.783 3.077 3.077 0 00-1.337-1.217 2.947 2.947 0 00-1.766-.234 3.004 3.004 0 00-1.589.83c-.438.434-.74.995-.868 1.609a3.25 3.25 0 00.15 1.836 3.129 3.129 0 001.117 1.434c.503.352 1.096.54 1.702.541a2.75 2.75 0 001.167-.166 2.82 2.82 0 001-.643c.287-.284.513-.627.663-1.008.15-.38.222-.788.21-1.2zm5.802.262a7.06 7.06 0 011.122-3.827 6.706 6.706 0 012.987-2.536 6.441 6.441 0 013.845-.39 6.585 6.585 0 013.405 1.888 6.964 6.964 0 011.817 3.53 7.11 7.11 0 01-.383 3.979 6.838 6.838 0 01-2.456 3.087 6.49 6.49 0 01-3.698 1.155 6.38 6.38 0 01-2.554-.507 6.56 6.56 0 01-2.164-1.491 6.83 6.83 0 01-1.436-2.244 7.019 7.019 0 01-.485-2.644zm9.527 0a3.061 3.061 0 00-.524-1.641 2.906 2.906 0 00-1.313-1.066 2.795 2.795 0 00-1.664-.137 2.864 2.864 0 00-1.46.84 3.027 3.027 0 00-.766 1.535 3.09 3.09 0 00.182 1.718 2.97 2.97 0 001.07 1.327 2.82 2.82 0 001.6.493c.386.008.77-.067 1.128-.22.357-.153.68-.38.95-.668.268-.288.476-.63.611-1.006.136-.375.194-.775.174-1.175h.012zm5.511-9.969c0-.462.132-.913.38-1.297.248-.384.6-.683 1.012-.86a2.183 2.183 0 011.303-.133c.437.09.84.313 1.155.64.315.326.53.742.617 1.195a2.41 2.41 0 01-.129 1.349 2.32 2.32 0 01-.83 1.047 2.199 2.199 0 01-1.253.394 2.242 2.242 0 01-1.587-.692 2.403 2.403 0 01-.668-1.643zm.367 3.476h3.801v12.985h-3.8V16.29zm20.068 6.492a6.763 6.763 0 01-.361 2.542 6.6 6.6 0 01-1.277 2.203 6.346 6.346 0 01-1.996 1.526 6.152 6.152 0 01-2.409.615 4.565 4.565 0 01-2.075-.343 4.713 4.713 0 01-1.725-1.244v6.414H99.26V16.29h3.801v1.22a4.703 4.703 0 011.726-1.238 4.555 4.555 0 012.074-.336 6.158 6.158 0 012.4.611 6.34 6.34 0 011.991 1.516 6.62 6.62 0 011.28 2.19c.283.81.409 1.669.372 2.53zm-3.8 0a3.17 3.17 0 00-.542-1.699 3.006 3.006 0 00-1.358-1.105 2.896 2.896 0 00-1.723-.142 2.961 2.961 0 00-1.511.869c-.41.437-.687.99-.795 1.588a3.198 3.198 0 00.188 1.779c.231.56.615 1.039 1.107 1.374a2.915 2.915 0 001.657.51c.403.018.805-.053 1.18-.207.375-.155.713-.39.995-.69a2.97 2.97 0 00.636-1.05c.138-.392.195-.81.166-1.227zm15.366 2.597c0 2.99-2.534 4.263-5.219 4.263a5.345 5.345 0 01-3.158-.69 5.612 5.612 0 01-2.239-2.406l3.268-1.915c.13.468.411.876.796 1.155a2 2 0 001.32.38c.899 0 1.356-.289 1.356-.813 0-1.43-6.17-.67-6.17-5.168 0-2.833 2.306-4.25 4.916-4.25a5.347 5.347 0 012.852.675 5.59 5.59 0 012.113 2.093l-3.268 1.784a1.902 1.902 0 00-.679-.829 1.808 1.808 0 00-1.005-.312c-.659 0-1.053.262-1.053.721 0 1.495 6.17.512 6.17 5.312zm13.771-9.089v12.985h-3.8v-1.22c-.433.54-.981.967-1.602 1.247-.62.28-1.296.406-1.972.366-2.533 0-4.7-1.875-4.7-5.377V16.29h3.801v7.41c-.03.31.006.623.104.917.099.295.257.563.465.788.209.224.462.4.742.513.28.113.581.162.88.143 1.369 0 2.331-.84 2.331-2.623V16.29h3.751zm21.535 5.01v7.975h-3.8v-7.634c0-1.311-.596-2.124-1.799-2.124-1.204 0-1.964.905-1.964 2.44v7.318h-3.801v-7.634c0-1.311-.595-2.124-1.799-2.124-1.203 0-1.963.905-1.963 2.44v7.318h-3.801V16.29h3.801v1.194a3.893 3.893 0 011.496-1.215 3.76 3.76 0 011.874-.333 3.606 3.606 0 011.858.403 3.759 3.759 0 011.423 1.302c.417-.58.97-1.04 1.606-1.337a4.005 4.005 0 012.029-.368c2.966 0 4.84 2.125 4.84 5.364zM18.458 6.913V1.339H1.482v38.298h16.976v-5.574c-3.478 0-6.813-1.43-9.272-3.976-2.459-2.546-3.84-5.999-3.84-9.6 0-3.6 1.381-7.052 3.84-9.598 2.46-2.546 5.794-3.976 9.272-3.976zm.002.001v27.15c3.477 0 6.812-1.43 9.27-3.977 2.46-2.545 3.841-5.998 3.841-9.599 0-3.6-1.381-7.053-3.84-9.598-2.46-2.546-5.794-3.976-9.272-3.976zm144.509 9.298c1.54 0 2.788-1.291 2.788-2.885 0-1.594-1.248-2.886-2.788-2.886-1.539 0-2.787 1.292-2.787 2.886s1.248 2.885 2.787 2.885z" fill="#1D2130"/></svg>