<svg width="188" height="41" fill="none" xmlns="http://www.w3.org/2000/svg"><g clip-path="url(#clip0_3409_3662)" fill="#1D2130"><path d="M60.474 32.431a4.138 4.138 0 01-2.647-.777 2.513 2.513 0 01-.756-.934 2.571 2.571 0 01-.243-1.186V14.526a.428.428 0 01.117-.35.412.412 0 01.343-.12h2.663c.301 0 .444.163.444.47v13.842c0 .615.27.923.824.923.235.01.47-.018.698-.081.317 0 .491.097.507.388l.238 2.024a.427.427 0 01-.212.454.407.407 0 01-.169.048c-.583.197-1.193.3-1.807.307zM75.456 30.7a7.373 7.373 0 01-4.756 1.747 7.373 7.373 0 01-4.756-1.747 6.547 6.547 0 01-1.836-4.557 6.55 6.55 0 011.836-4.558 7.404 7.404 0 014.756-1.737c1.734 0 3.415.614 4.756 1.737a6.648 6.648 0 011.79 4.55 6.648 6.648 0 01-1.79 4.549v.016zm-7.007-2.137a3.337 3.337 0 002.267.893 3.34 3.34 0 002.267-.893c.562-.66.871-1.505.871-2.38s-.31-1.72-.871-2.38a3.338 3.338 0 00-2.267-.892 3.34 3.34 0 00-2.267.892 3.671 3.671 0 00-.872 2.38c0 .875.31 1.72.872 2.38zm23.461-8.307c.302 0 .444.162.444.47v11.607a5.379 5.379 0 01-.42 2.283 5.274 5.274 0 01-1.34 1.878 6.572 6.572 0 01-4.612 1.619 7.304 7.304 0 01-4.297-1.214 4.808 4.808 0 01-1.368-1.399 4.915 4.915 0 01-.708-1.839c0-.324 0-.47.428-.47H82.7a.58.58 0 01.523.373c.173.492.517.9.967 1.15a3.646 3.646 0 001.776.42 2.75 2.75 0 001.096-.162 2.81 2.81 0 00.949-.583 2.803 2.803 0 00.745-2.024v-1.02a5.235 5.235 0 01-3.298 1.053 6.034 6.034 0 01-2.427-.413 6.135 6.135 0 01-2.075-1.351 6.548 6.548 0 01-1.782-4.501c0-1.68.64-3.293 1.782-4.5a6.182 6.182 0 012.078-1.34c.773-.3 1.597-.44 2.424-.41a5.252 5.252 0 013.377 1.118v-.26a.43.43 0 01.113-.341.41.41 0 01.33-.128l2.632-.016zm-6.15 9.26a2.74 2.74 0 001.19-.23c.375-.166.71-.413.981-.725a4.02 4.02 0 00.813-2.428c0-.88-.286-1.733-.813-2.428a2.775 2.775 0 00-.976-.714 2.724 2.724 0 00-1.18-.225 2.801 2.801 0 00-1.204.23c-.38.165-.722.412-1 .725a3.476 3.476 0 00-.855 2.428 3.542 3.542 0 00.84 2.412c.278.312.62.559 1 .724.38.165.79.244 1.204.231zm20.275 1.183a7.405 7.405 0 01-4.756 1.737 7.404 7.404 0 01-4.756-1.737 6.664 6.664 0 01-1.792-4.557c0-1.699.642-3.331 1.792-4.558a7.419 7.419 0 014.756-1.732 7.42 7.42 0 014.756 1.732 6.648 6.648 0 011.791 4.55 6.648 6.648 0 01-1.791 4.549v.016zm-7.023-2.137a3.132 3.132 0 002.283.89 3.11 3.11 0 001.22-.214 3.165 3.165 0 001.047-.676 3.72 3.72 0 00.856-2.38 3.72 3.72 0 00-.856-2.38 3.165 3.165 0 00-1.047-.675 3.11 3.11 0 00-1.22-.215 3.114 3.114 0 00-1.229.211c-.392.153-.75.384-1.054.68a3.721 3.721 0 00-.856 2.379c0 .872.303 1.716.856 2.38zm14.538-11.057a2.271 2.271 0 01-1.514.581 2.271 2.271 0 01-1.514-.58 1.969 1.969 0 01-.602-1.426 1.967 1.967 0 01.602-1.425 2.313 2.313 0 013.028.001 1.967 1.967 0 01.602 1.424 1.969 1.969 0 01-.602 1.425zm.333 14.927a4.202 4.202 0 01-2.648-.778 2.553 2.553 0 01-.743-.938 2.614 2.614 0 01-.24-1.182v-8.807a.43.43 0 01.118-.35.413.413 0 01.342-.12h2.664c.301 0 .443.162.443.47v7.641c0 .615.27.923.809.923.24.009.481-.019.713-.081.317 0 .492.097.508.388l.237 2.024a.417.417 0 01-.38.502 5.9 5.9 0 01-1.823.307zm12.002-12.564a6.094 6.094 0 012.44.405c.78.3 1.491.757 2.094 1.344a6.715 6.715 0 011.744 4.525 6.717 6.717 0 01-1.744 4.525 6.141 6.141 0 01-2.09 1.356 6.047 6.047 0 01-2.444.408 5.374 5.374 0 01-3.313-1.052v5.844c0 .308-.159.454-.46.454h-2.663a.376.376 0 01-.339-.108.396.396 0 01-.105-.346V23.948a.86.86 0 00-.233-.718.824.824 0 00-.702-.237h-.524c-.348 0-.523-.13-.523-.389v-1.91a.53.53 0 01.09-.333.505.505 0 01.275-.201 4.669 4.669 0 011.712-.292 2.884 2.884 0 011.677.362 2.97 2.97 0 011.192 1.257 5.343 5.343 0 011.795-1.221 5.242 5.242 0 012.121-.398zm-2.473 8.694c.283.302.622.542.998.706a2.976 2.976 0 002.379 0 3.03 3.03 0 00.999-.706 3.54 3.54 0 00.871-2.477 3.494 3.494 0 00-.871-2.477 3.033 3.033 0 00-.999-.706 2.968 2.968 0 00-2.379 0 3.03 3.03 0 00-.998.706 3.624 3.624 0 00-.84 2.477 3.674 3.674 0 00.84 2.477zm16.231 3.868a7.516 7.516 0 01-4.074-1.003 3.908 3.908 0 01-1.24-1.219 4.017 4.017 0 01-.599-1.647c0-.324.112-.485.46-.485h2.331a.593.593 0 01.522.356c.333.874 1.205 1.311 2.6 1.311.487.023.971-.077 1.412-.291a.936.936 0 00.539-.794c0-.42-.254-.712-.761-.906a8.434 8.434 0 00-1.856-.405 17.341 17.341 0 01-2.219-.405 3.631 3.631 0 01-1.855-1.084 3.518 3.518 0 01-.262-3.99 3.44 3.44 0 01.944-1.03 6.428 6.428 0 013.836-1.035 6.887 6.887 0 013.741.955c.458.265.852.63 1.153 1.07.302.44.504.942.592 1.472 0 .323-.143.485-.428.485h-2.347a.484.484 0 01-.282-.07.509.509 0 01-.194-.221 1.607 1.607 0 00-.823-.858 2.748 2.748 0 00-1.364-.324 2.709 2.709 0 00-1.348.275.808.808 0 00-.506.745c.01.221.089.434.226.606s.324.294.534.35a8.467 8.467 0 001.886.485c.742.1 1.477.24 2.204.42a3.625 3.625 0 011.855 1.085c.267.3.473.65.606 1.03s.191.785.171 1.189a3.305 3.305 0 01-.373 1.607c-.259.493-.638.91-1.102 1.21a6.817 6.817 0 01-3.979 1.116zm22.211-.808a.478.478 0 01-.006.173.452.452 0 01-.199.272.421.421 0 01-.159.057 6.008 6.008 0 01-1.791.307 3.454 3.454 0 01-1.767-.279 3.536 3.536 0 01-1.405-1.129 5.66 5.66 0 01-4.041 1.408 4.829 4.829 0 01-2.009-.335 4.919 4.919 0 01-1.702-1.138 5.357 5.357 0 01-1.41-3.901v-6.33c0-.308.142-.47.443-.47h2.664c.3 0 .444.162.444.47v5.844c-.029.728.214 1.44.682 1.991a2.358 2.358 0 001.822.762 2.58 2.58 0 001.021-.163 2.62 2.62 0 00.882-.55c.241-.254.429-.557.553-.888a2.66 2.66 0 00.16-1.039v-5.957c0-.308.142-.47.444-.47h2.695c.301 0 .443.162.443.47v7.625c0 .631.27.939.794.939.245.01.491-.018.729-.081a.405.405 0 01.474.207c.03.056.047.118.049.181l.19 2.024zm25.19 0a.422.422 0 01-.066.34.393.393 0 01-.298.163 6.057 6.057 0 01-1.824.307 4.169 4.169 0 01-2.647-.777 2.52 2.52 0 01-.792-.925 2.59 2.59 0 01-.27-1.196V25.73a2.898 2.898 0 00-.667-1.992 2.246 2.246 0 00-.803-.584 2.207 2.207 0 00-.971-.177 1.97 1.97 0 00-1.585.712 2.914 2.914 0 00-.603 1.911v5.974c0 .307-.143.47-.444.47h-2.68a.405.405 0 01-.341-.12.422.422 0 01-.098-.162.417.417 0 01-.021-.188v-5.845a3.032 3.032 0 00-.617-1.99 2.076 2.076 0 00-.71-.562 2.027 2.027 0 00-.876-.2 2.263 2.263 0 00-1.743.713 2.708 2.708 0 00-.65 1.91v5.974a.446.446 0 01-.019.188.437.437 0 01-.099.161.41.41 0 01-.342.12h-2.584c-.301 0-.444-.162-.444-.47V23.95a.86.86 0 00-.233-.718.818.818 0 00-.702-.237h-.523c-.35 0-.524-.13-.524-.39v-1.91a.513.513 0 01.365-.534 4.665 4.665 0 011.712-.291 2.932 2.932 0 011.622.329c.498.263.915.666 1.2 1.16a5.325 5.325 0 011.862-1.173 5.253 5.253 0 012.165-.316 4.469 4.469 0 012.079.4 4.56 4.56 0 011.678 1.316 5.232 5.232 0 011.887-1.335 5.138 5.138 0 012.266-.381 4.918 4.918 0 012.03.334 4.999 4.999 0 011.727 1.14 5.3 5.3 0 011.098 1.802c.242.67.349 1.385.314 2.099v3.124c0 .616.268.923.776.923.246.012.492-.015.729-.08.328 0 .502.129.523.388l.143 2.023zM1.153 18.153c1.17-4.8 3.879-9.064 7.695-12.11A21.416 21.416 0 0122.214 1.34c4.844 0 9.549 1.655 13.366 4.702 3.816 3.046 6.525 7.31 7.694 12.11h-1.902a15.137 15.137 0 00-8.989 2.8 4.532 4.532 0 01-.475.309h-.222a4.514 4.514 0 01-.476-.308 15.885 15.885 0 00-8.996-2.802c-3.205 0-6.337.976-8.997 2.802a4.533 4.533 0 01-.475.308h-.222a4.513 4.513 0 01-.476-.308 15.137 15.137 0 00-8.988-2.8H1.153zm36.795 10.15a5.269 5.269 0 013.424-1.149h2.552v-5.196h-2.552a9.97 9.97 0 00-6.072 1.975 5.69 5.69 0 01-3.424 1.15 5.691 5.691 0 01-3.424-1.15 10.626 10.626 0 00-6.159-1.974c-2.202 0-4.351.689-6.159 1.974a5.691 5.691 0 01-3.424 1.15 5.69 5.69 0 01-3.424-1.15 9.97 9.97 0 00-6.151-1.975H.503v5.196h2.553a5.269 5.269 0 013.424 1.15 10.594 10.594 0 006.15 1.975c2.2 0 4.348-.69 6.152-1.975a5.3 5.3 0 013.424-1.15 5.238 5.238 0 013.424 1.15 10.626 10.626 0 006.159 1.973c2.202 0 4.351-.688 6.159-1.973zm0 9.293a5.27 5.27 0 013.424-1.149h2.552V31.25h-2.552a9.972 9.972 0 00-6.072 1.975 5.69 5.69 0 01-3.424 1.15 5.69 5.69 0 01-3.424-1.15 10.625 10.625 0 00-6.159-1.973c-2.202 0-4.351.688-6.159 1.973a5.69 5.69 0 01-3.424 1.15 5.69 5.69 0 01-3.424-1.15 9.97 9.97 0 00-6.151-1.975H.503v5.197h2.553a5.27 5.27 0 013.424 1.15 10.594 10.594 0 006.15 1.974c2.2 0 4.348-.689 6.152-1.975a5.3 5.3 0 013.424-1.149 5.238 5.238 0 013.424 1.15 10.626 10.626 0 006.159 1.973c2.202 0 4.351-.689 6.159-1.974z"/></g><defs><clipPath id="clip0_3409_3662"><path fill="#fff" transform="translate(.085 .566)" d="M0 0h187.141v40H0z"/></clipPath></defs></svg>