<svg width="167" height="41" fill="none" xmlns="http://www.w3.org/2000/svg"><g clip-path="url(#clip0_3409_3673)" fill="#1D2130"><path d="M47.826 12.94H52v17.335h-4.174V12.94zm5.838 10.814c0-4.293 2.6-6.867 6.5-6.867 3.901 0 6.502 2.574 6.502 6.867 0 4.294-2.51 6.894-6.501 6.894-3.992 0-6.501-2.507-6.501-6.894zm8.867 0c0-2.36-.897-3.747-2.327-3.747s-2.315 1.334-2.315 3.747c0 2.414.885 3.734 2.315 3.734s2.353-1.32 2.353-3.72l-.026-.014zm5.8 7.414h4.03c.183.445.504.816.912 1.057.409.24.883.338 1.35.276 1.6 0 2.432-.88 2.432-2.186v-2.4h.013A4.057 4.057 0 0175.47 29.7a3.91 3.91 0 01-2.303.547c-3.055 0-5.084-2.387-5.084-6.494 0-4.107 1.938-6.667 5.201-6.667a3.915 3.915 0 012.34.624 4.07 4.07 0 011.56 1.896h-.116v-2.413h4.134V30.18c0 3.134-2.704 5.094-6.683 5.094-3.614-.014-5.929-1.707-6.163-4.094l-.026-.013zm8.737-7.414c0-2.093-.936-3.413-2.419-3.413-1.482 0-2.392 1.333-2.392 3.413s.897 3.307 2.392 3.307c1.495 0 2.419-1.133 2.419-3.307zm5.786 0c0-4.293 2.6-6.867 6.5-6.867 3.901 0 6.502 2.574 6.502 6.867 0 4.294-2.523 6.894-6.501 6.894-3.979 0-6.476-2.507-6.476-6.894h-.025zm8.867 0c0-2.36-.91-3.747-2.327-3.747-1.418 0-2.315 1.334-2.315 3.747 0 2.414.884 3.734 2.315 3.734 1.43 0 2.353-1.32 2.353-3.72l-.026-.014zm5.825-9.72a2.23 2.23 0 01.314-1.24 2.15 2.15 0 01.937-.846 2.085 2.085 0 012.354.413 2.233 2.233 0 01.504 2.394 2.176 2.176 0 01-.783.996 2.097 2.097 0 01-1.194.376 2.01 2.01 0 01-.796-.142 2.049 2.049 0 01-.68-.446 2.11 2.11 0 01-.461-.681 2.15 2.15 0 01-.169-.81l-.026-.014zm0 3.147h4.226v13.147h-4.161l-.065-13.147zm19.425 6.573c0 4.28-1.872 6.76-5.058 6.76a3.912 3.912 0 01-2.324-.59 4.064 4.064 0 01-1.576-1.85h-.078v6.48h-4.174V17.222h4.147v2.346h.079a4.094 4.094 0 011.56-1.898 3.938 3.938 0 012.34-.635c3.276-.027 5.162 2.44 5.162 6.733l-.078-.013zm-4.251 0c0-2.08-.95-3.427-2.419-3.427-1.47 0-2.393 1.334-2.405 3.427-.013 2.094.935 3.414 2.405 3.414 1.469 0 2.497-1.24 2.497-3.4l-.078-.014zm11.376-6.88c3.498 0 5.669 1.693 5.695 4.413h-3.81c0-.946-.766-1.533-1.911-1.533-1.144 0-1.69.453-1.69 1.133 0 .68.481.894 1.443 1.094l2.679.56c2.6.56 3.64 1.627 3.64 3.613 0 2.667-2.406 4.48-5.98 4.48-3.576 0-5.904-1.76-6.072-4.44h4.043c.117.974.871 1.547 2.093 1.547 1.223 0 1.794-.4 1.794-1.107 0-.706-.389-.826-1.391-1.04l-2.418-.52c-2.51-.546-3.823-1.893-3.823-3.907.079-2.613 2.262-4.28 5.786-4.28l-.078-.013zm20.023 13.44h-4.043v-2.466h-.078a3.756 3.756 0 01-1.398 2.039 3.601 3.601 0 01-2.334.694 4.36 4.36 0 01-1.836-.339 4.464 4.464 0 01-1.54-1.08 4.597 4.597 0 01-.974-1.63 4.68 4.68 0 01-.24-1.898v-8.44h4.174v7.52c0 1.547.793 2.387 2.094 2.387a2.08 2.08 0 00.882-.204c.277-.131.522-.323.721-.56.198-.238.344-.516.43-.817.084-.3.104-.616.06-.926v-7.4h4.161l-.079 13.12zm2.015-13.133h4.058v2.533h.09a3.816 3.816 0 011.366-2.026 3.656 3.656 0 012.288-.747 3.269 3.269 0 012.307.686 3.421 3.421 0 011.255 2.1h.183a3.989 3.989 0 011.489-2.073 3.829 3.829 0 012.412-.713 3.952 3.952 0 011.669.298 4.04 4.04 0 011.404.971c.397.422.702.925.896 1.476.195.55.272 1.137.23 1.721v8.92h-4.199v-7.826c0-1.334-.612-2.08-1.795-2.08a1.78 1.78 0 00-.763.158c-.24.108-.455.268-.629.47a1.893 1.893 0 00-.442 1.492v7.787h-3.978V22.46c0-1.334-.637-2.04-1.781-2.04a1.854 1.854 0 00-1.405.64 1.917 1.917 0 00-.386.703c-.079.26-.101.534-.069.803v7.76h-4.173l-.027-13.146zM39.57 14.074a13.41 13.41 0 00-2.242-7.437 12.907 12.907 0 00-5.944-4.84 12.546 12.546 0 00-7.57-.555 12.781 12.781 0 00-6.555 3.925H1.032v35.121h34.26V23.874a13.15 13.15 0 003.158-4.432 13.447 13.447 0 001.12-5.368zm-6.592 0a6.545 6.545 0 01-1.05 3.574 6.305 6.305 0 01-2.81 2.373 6.122 6.122 0 01-3.621.371 6.22 6.22 0 01-3.213-1.756 6.478 6.478 0 01-1.718-3.29 6.58 6.58 0 01.354-3.715 6.395 6.395 0 012.308-2.887 6.156 6.156 0 013.483-1.084c1.66 0 3.252.675 4.427 1.878a6.511 6.511 0 011.84 4.536zM28.7 33.528H7.624v-21.6h6.423c-.124.708-.19 1.426-.195 2.146.003 3.496 1.36 6.848 3.77 9.32 2.411 2.473 5.68 3.864 9.09 3.867a12.274 12.274 0 001.988-.173v6.44z"/></g><defs><clipPath id="clip0_3409_3673"><path fill="#fff" transform="translate(.226 .566)" d="M0 0h165.987v40H0z"/></clipPath></defs></svg>