<svg width="166" height="41" fill="none" xmlns="http://www.w3.org/2000/svg"><path d="M48.551 12.25h4.117v17.072h-4.117V12.25zm5.75 10.626c0-4.223 2.526-6.742 6.424-6.742 3.898 0 6.423 2.52 6.423 6.742 0 4.222-2.47 6.756-6.423 6.756s-6.423-2.463-6.423-6.756zm8.716 0c0-2.323-.892-3.688-2.292-3.688s-2.279 1.408-2.279 3.688c0 2.28.865 3.66 2.279 3.66 1.413 0 2.292-1.296 2.292-3.646v-.014zm5.682 7.276h3.952c.188.43.506.784.907 1.012.4.228.862.318 1.317.255 1.564 0 2.388-.872 2.388-2.14v-2.364h-.083a3.964 3.964 0 01-1.528 1.744 3.82 3.82 0 01-2.219.565c-3.005 0-4.995-2.35-4.995-6.39 0-4.04 1.894-6.587 5.05-6.587a3.866 3.866 0 012.273.63 4.016 4.016 0 011.515 1.847v-2.35h4.118V29.18c0 3.083-2.65 4.997-6.56 4.997-3.638 0-5.902-1.675-6.135-4.011v-.015zm8.577-7.29c0-2.055-.92-3.35-2.374-3.35-1.455 0-2.347 1.28-2.347 3.35 0 2.069.878 3.237 2.347 3.237 1.469 0 2.374-1.14 2.374-3.223v-.014zm5.669 0c0-4.223 2.525-6.742 6.423-6.742 3.897 0 6.436 2.52 6.436 6.742 0 4.222-2.47 6.756-6.436 6.756-3.967 0-6.423-2.45-6.423-6.742v-.014zm8.715 0c0-2.323-.892-3.688-2.292-3.688s-2.21 1.422-2.21 3.716c0 2.294.865 3.66 2.265 3.66 1.4 0 2.237-1.31 2.237-3.66v-.028zm5.709-9.557c-.01-.426.102-.846.324-1.207a2.12 2.12 0 01.924-.818 2.052 2.052 0 012.301.412c.301.294.51.674.6 1.09.09.416.058.851-.093 1.248-.151.398-.413.74-.754.985a2.063 2.063 0 01-1.161.387 1.96 1.96 0 01-.812-.115 1.996 1.996 0 01-.7-.44 2.055 2.055 0 01-.469-.69 2.102 2.102 0 01-.16-.824v-.028zm0 3.096h4.117v12.921h-4.117v-12.92zm19.064 6.46c0 4.223-1.826 6.63-4.955 6.63a3.845 3.845 0 01-2.288-.576 3.99 3.99 0 01-1.555-1.817h-.083v6.362h-4.117V16.373h4.117v2.308h.083a4.012 4.012 0 011.524-1.863 3.866 3.866 0 012.291-.628c3.157.057 5.037 2.477 5.037 6.7l-.054-.028zm-4.118 0c0-2.054-.92-3.363-2.361-3.363-1.441 0-2.36 1.323-2.374 3.364-.014 2.04.933 3.35 2.374 3.35s2.361-1.281 2.361-3.322v-.028zm11.186-6.755c3.416 0 5.489 1.66 5.585 4.32h-3.747c0-.914-.741-1.491-1.879-1.491-1.14 0-1.648.45-1.648 1.112 0 .661.453.872 1.373 1.07l2.634.548c2.513.55 3.582 1.59 3.582 3.547 0 2.675-2.374 4.392-5.873 4.392-3.5 0-5.792-1.717-5.97-4.35h3.966c.124.958.865 1.52 2.073 1.52 1.207 0 1.756-.408 1.756-1.083 0-.676-.384-.816-1.372-1.028l-2.374-.52c-2.457-.521-3.748-1.858-3.748-3.829.028-2.533 2.238-4.18 5.642-4.18v-.028zm19.639 13.188h-3.967v-2.407h-.082a3.67 3.67 0 01-1.363 2.005 3.517 3.517 0 01-2.287.683 4.28 4.28 0 01-1.836-.298 4.37 4.37 0 01-1.549-1.052 4.517 4.517 0 01-.985-1.616 4.59 4.59 0 01-.242-1.89v-8.346h4.118v7.375c0 1.535.768 2.351 2.045 2.351a2.088 2.088 0 001.581-.732c.198-.23.345-.502.431-.796a2.19 2.19 0 00.074-.907v-7.29h4.117l-.055 12.92zm1.99-12.92h3.98v2.49h.083a3.744 3.744 0 011.336-1.992 3.59 3.59 0 012.246-.738 3.223 3.223 0 012.286.706 3.383 3.383 0 011.213 2.109h.083a3.96 3.96 0 011.465-2.087 3.802 3.802 0 012.405-.728c.56-.02 1.118.082 1.637.299.519.216.987.541 1.376.956.388.414.687.907.878 1.448.19.54.267 1.115.226 1.688v8.797h-4.117v-7.67c0-1.408-.618-2.056-1.77-2.056a1.76 1.76 0 00-.747.16 1.797 1.797 0 00-.615.462 1.883 1.883 0 00-.437 1.461v7.643h-3.91v-7.727c0-1.295-.618-1.999-1.744-1.999a1.808 1.808 0 00-1.376.636 1.912 1.912 0 00-.45 1.476v7.614h-4.117l.069-12.949zm-108.093-3.35a18.733 18.733 0 00-2.745-4.532 18.659 18.659 0 00-6.073-4.985 18.157 18.157 0 00-15.2-.653 18.549 18.549 0 00-6.458 4.447 19.122 19.122 0 00-4.116 6.77 19.493 19.493 0 001.148 15.556 18.92 18.92 0 005.062 6.057 17.856 17.856 0 004.392 2.576 17.98 17.98 0 006.958 1.407c4.926-.01 9.647-2.025 13.128-5.6 3.48-3.575 5.438-8.419 5.441-13.471a19.26 19.26 0 00-1.537-7.572zM19.991 5.38c2.143 0 4.26.48 6.204 1.408a5.91 5.91 0 01-1.483.436 7.795 7.795 0 00-4.434 2.279 8.143 8.143 0 00-2.222 4.547 4.264 4.264 0 01-1.213 2.544 4.074 4.074 0 01-2.506 1.186 7.794 7.794 0 00-4.434 2.279 8.143 8.143 0 00-2.223 4.547 4.144 4.144 0 01-1.084 2.45 15.536 15.536 0 01.877-14.639 14.983 14.983 0 015.38-5.185 14.533 14.533 0 017.152-1.88l-.014.028zM8.641 30.448c.165-.154.33-.295.494-.464a7.786 7.786 0 002.223-4.546 4.153 4.153 0 011.195-2.562 3.845 3.845 0 012.484-1.21 7.795 7.795 0 004.434-2.28 8.142 8.142 0 002.222-4.547 4.157 4.157 0 011.194-2.688 3.896 3.896 0 012.512-1.168 7.445 7.445 0 004.117-2.013 14.704 14.704 0 013.239 3.913 1.206 1.206 0 01-.178.197 3.902 3.902 0 01-2.485 1.239 7.767 7.767 0 00-4.439 2.274 8.115 8.115 0 00-2.217 4.552 4.268 4.268 0 01-1.19 2.561 4.075 4.075 0 01-2.502 1.21 7.835 7.835 0 00-4.452 2.276 8.182 8.182 0 00-2.245 4.551 4.494 4.494 0 01-.673 1.929 15.046 15.046 0 01-3.733-3.224zm11.35 5.433a14.537 14.537 0 01-4.117-.59c.458-.876.755-1.83.878-2.816a4.269 4.269 0 011.185-2.557 4.076 4.076 0 012.493-1.215 7.794 7.794 0 004.443-2.275 8.142 8.142 0 002.227-4.551 4.267 4.267 0 011.185-2.557 4.076 4.076 0 012.494-1.215 7.724 7.724 0 003.513-1.408 15.6 15.6 0 01.2 6.885 15.415 15.415 0 01-2.777 6.27 14.938 14.938 0 01-5.188 4.375 14.548 14.548 0 01-6.536 1.584v.07z" fill="#1D2130"/></svg>