<svg width="197" height="41" fill="none" xmlns="http://www.w3.org/2000/svg"><g clip-path="url(#clip0_3409_3632)" fill="#1D2130"><path d="M30.094 18.17a5.475 5.475 0 00-1.229 2.008 5.608 5.608 0 00-.283 2.357l-.026-.027a6.66 6.66 0 01-.36 2.768 6.5 6.5 0 01-1.457 2.354 6.26 6.26 0 01-2.283 1.502 6.105 6.105 0 01-2.685.371l.026.027a5.185 5.185 0 00-3.132.7 5.42 5.42 0 00-2.173 2.428 5.634 5.634 0 00-.424 3.276 5.54 5.54 0 001.48 2.931 5.265 5.265 0 002.844 1.522 5.173 5.173 0 003.176-.44 5.384 5.384 0 002.354-2.242 5.62 5.62 0 00.675-3.23l.028.026a6.659 6.659 0 01.36-2.768 6.5 6.5 0 011.457-2.354 6.259 6.259 0 012.283-1.502 6.103 6.103 0 012.685-.371l-.028-.027a5.163 5.163 0 002.604-.437 5.332 5.332 0 002.077-1.676 5.56 5.56 0 001.038-2.5 5.629 5.629 0 00-.257-2.706 5.477 5.477 0 00-1.489-2.244 5.25 5.25 0 00-2.353-1.228 5.151 5.151 0 00-2.636.092 5.275 5.275 0 00-2.268 1.39h-.004zm-10.663 7.846l-.027-.027a5.103 5.103 0 002.288-.286 5.228 5.228 0 001.948-1.27 5.433 5.433 0 001.232-2.007 5.553 5.553 0 00.28-2.359l.028.027a6.66 6.66 0 01.36-2.768 6.502 6.502 0 011.457-2.354 6.258 6.258 0 012.283-1.503 6.104 6.104 0 012.685-.37l-.028-.027a5.185 5.185 0 003.133-.698 5.42 5.42 0 002.175-2.427 5.636 5.636 0 00.426-3.276 5.54 5.54 0 00-1.478-2.932 5.265 5.265 0 00-2.844-1.524 5.172 5.172 0 00-3.177.44 5.382 5.382 0 00-2.355 2.242 5.62 5.62 0 00-.676 3.23l-.026-.028a6.658 6.658 0 01-.36 2.768A6.498 6.498 0 0125.3 13.22a6.254 6.254 0 01-2.284 1.503 6.103 6.103 0 01-2.685.37l.026.028a5.103 5.103 0 00-2.287.287 5.228 5.228 0 00-1.949 1.27 5.437 5.437 0 00-1.232 2.007 5.57 5.57 0 00-.28 2.359l-.026-.027a6.66 6.66 0 01-.36 2.767 6.502 6.502 0 01-1.457 2.354 6.258 6.258 0 01-2.284 1.503 6.103 6.103 0 01-2.684.371l.026.027a5.186 5.186 0 00-3.133.697 5.421 5.421 0 00-2.175 2.428 5.635 5.635 0 00-.426 3.275 5.54 5.54 0 001.478 2.933 5.264 5.264 0 002.844 1.524 5.173 5.173 0 003.177-.44 5.382 5.382 0 002.355-2.242c.542-.98.778-2.107.676-3.23l.027.026a6.658 6.658 0 01.36-2.767 6.5 6.5 0 011.457-2.355 6.26 6.26 0 012.284-1.502 6.105 6.105 0 012.684-.37zm-9.688-2.991a5.467 5.467 0 001.229-2.008 5.6 5.6 0 00.282-2.357l.027.027a6.66 6.66 0 01.36-2.769 6.503 6.503 0 011.458-2.354 6.26 6.26 0 012.284-1.502 6.105 6.105 0 012.686-.37l-.028-.027a5.184 5.184 0 003.132-.698 5.42 5.42 0 002.174-2.427 5.634 5.634 0 00.426-3.274 5.539 5.539 0 00-1.478-2.932A5.263 5.263 0 0019.452.811a5.17 5.17 0 00-3.176.439 5.382 5.382 0 00-2.354 2.241 5.622 5.622 0 00-.677 3.23l-.025-.027a6.659 6.659 0 01-.36 2.767 6.5 6.5 0 01-1.457 2.355 6.258 6.258 0 01-2.284 1.502 6.104 6.104 0 01-2.684.37l.026.028a5.164 5.164 0 00-2.603.438 5.332 5.332 0 00-2.077 1.675 5.559 5.559 0 00-1.038 2.5A5.63 5.63 0 001 21.035a5.48 5.48 0 001.49 2.244 5.249 5.249 0 002.353 1.228 5.152 5.152 0 002.636-.092 5.277 5.277 0 002.267-1.39h-.003zM54.518 8.161h4.292V29.7h-4.292V8.161zm6.724 14.164a7.994 7.994 0 011.264-4.352 7.641 7.641 0 013.397-2.894 7.372 7.372 0 014.384-.458 7.514 7.514 0 013.891 2.133 7.895 7.895 0 012.085 4.003 8.045 8.045 0 01-.427 4.522 7.774 7.774 0 01-2.793 3.515 7.423 7.423 0 01-4.217 1.32 7.298 7.298 0 01-2.908-.569 7.484 7.484 0 01-2.469-1.685 7.75 7.75 0 01-1.644-2.538 7.938 7.938 0 01-.563-2.997zm10.876 0a3.465 3.465 0 00-.6-1.86 3.31 3.31 0 00-1.495-1.209 3.2 3.2 0 00-1.895-.154 3.267 3.267 0 00-1.662.95 3.432 3.432 0 00-.876 1.74c-.12.656-.049 1.333.203 1.948s.674 1.14 1.214 1.509c.54.368 1.172.565 1.82.565a3.11 3.11 0 001.294-.243c.411-.172.783-.43 1.092-.758.31-.328.55-.718.705-1.146a3.4 3.4 0 00.2-1.342zm21.402-7.377v14.008c0 4.957-3.75 7.052-7.555 7.052a7.13 7.13 0 01-3.878-.806 7.408 7.408 0 01-2.904-2.77l3.663-2.184a3.329 3.329 0 001.349 1.456c.583.332 1.25.472 1.913.403.424.06.855.022 1.262-.113.407-.134.78-.362 1.09-.665.31-.303.551-.674.704-1.086.152-.412.213-.853.177-1.293v-1.348a5.103 5.103 0 01-1.868 1.47 4.948 4.948 0 01-2.31.448 7.172 7.172 0 01-4.993-2.277 7.621 7.621 0 01-2.05-5.217 7.62 7.62 0 012.05-5.218 7.173 7.173 0 014.993-2.276 4.951 4.951 0 012.31.447 5.104 5.104 0 011.868 1.47v-1.504l4.18.003zm-4.177 7.08a3.662 3.662 0 00-.514-2.027 3.505 3.505 0 00-1.526-1.383 3.375 3.375 0 00-2.016-.264 3.432 3.432 0 00-1.813.945 3.609 3.609 0 00-.989 1.83 3.681 3.681 0 00.174 2.087 3.57 3.57 0 001.279 1.629 3.396 3.396 0 001.943.61 3.15 3.15 0 001.329-.191 3.224 3.224 0 001.14-.73c.325-.324.582-.713.753-1.145a3.43 3.43 0 00.24-1.361zm6.608.297a7.995 7.995 0 011.264-4.352 7.641 7.641 0 013.397-2.894 7.37 7.37 0 014.384-.458 7.509 7.509 0 013.891 2.133 7.894 7.894 0 012.085 4.003 8.047 8.047 0 01-.427 4.522 7.772 7.772 0 01-2.793 3.515 7.423 7.423 0 01-4.217 1.32 7.297 7.297 0 01-2.908-.569 7.482 7.482 0 01-2.469-1.685 7.753 7.753 0 01-1.644-2.538 7.942 7.942 0 01-.563-2.997zm10.876 0a3.464 3.464 0 00-.599-1.86 3.314 3.314 0 00-1.496-1.209 3.2 3.2 0 00-1.895-.154 3.264 3.264 0 00-1.662.95 3.438 3.438 0 00-.876 1.74 3.498 3.498 0 00.203 1.948c.252.615.674 1.14 1.214 1.509a3.22 3.22 0 001.819.565 3.12 3.12 0 001.296-.243c.41-.172.782-.43 1.091-.758.31-.328.55-.718.705-1.146a3.4 3.4 0 00.2-1.342zm6.295-11.331c0-.525.151-1.039.434-1.476a2.593 2.593 0 011.156-.978 2.504 2.504 0 011.488-.15c.5.102.959.355 1.319.726s.606.845.705 1.36a2.725 2.725 0 01-.147 1.534c-.195.485-.525.9-.948 1.192a2.523 2.523 0 01-1.432.447 2.565 2.565 0 01-1.813-.785 2.724 2.724 0 01-.762-1.87zm.434 3.954h4.294V29.7h-4.3l.006-14.754zm22.83 7.377a7.618 7.618 0 01-.406 2.87 7.446 7.446 0 01-1.444 2.49 7.207 7.207 0 01-2.259 1.728 7.015 7.015 0 01-2.731.7 5.225 5.225 0 01-2.328-.405 5.372 5.372 0 01-1.935-1.395v7.289h-4.293V14.948h4.293v1.386a5.384 5.384 0 011.936-1.394 5.222 5.222 0 012.327-.405 7.013 7.013 0 012.731.7 7.201 7.201 0 012.26 1.728 7.47 7.47 0 011.445 2.49c.317.92.454 1.897.404 2.872zm-4.293 0a3.581 3.581 0 00-.615-1.926 3.425 3.425 0 00-1.545-1.255 3.311 3.311 0 00-1.961-.164 3.381 3.381 0 00-1.722.982 3.558 3.558 0 00-.908 1.799 3.619 3.619 0 00.208 2.016c.261.636.698 1.18 1.255 1.561a3.337 3.337 0 001.884.586 3.18 3.18 0 001.347-.233 3.27 3.27 0 001.137-.78c.322-.34.569-.746.728-1.192a3.47 3.47 0 00.192-1.394zm17.538 2.949c0 3.393-2.86 4.84-5.95 4.84a6.109 6.109 0 01-3.599-.783 6.375 6.375 0 01-2.554-2.73l3.719-2.182c.151.533.474.996.916 1.313.442.317.975.468 1.513.427 1.029 0 1.544-.325 1.544-.913 0-1.625-7.04-.768-7.04-5.872 0-3.217 2.634-4.839 5.61-4.839a6.107 6.107 0 013.208.793 6.348 6.348 0 012.371 2.364l-3.663 2.035a2.122 2.122 0 00-.769-.946 2.03 2.03 0 00-1.147-.352c-.744 0-1.204.298-1.204.826.006 1.682 7.045.56 7.045 6.02zm15.685-10.326v14.754h-4.294v-1.388a4.89 4.89 0 01-1.834 1.408 4.76 4.76 0 01-2.256.393c-2.891 0-5.348-2.124-5.348-6.11v-9.057h4.293v8.408a2.498 2.498 0 00.641 1.936c.237.256.525.455.844.584a2.3 2.3 0 001.004.163c1.574 0 2.661-.944 2.661-3.039v-8.047l4.289-.005zm24.615 5.695v9.058h-4.294v-8.675c0-1.475-.687-2.419-2.06-2.419-1.43 0-2.233 1.033-2.233 2.774v8.32h-4.291v-8.675c0-1.475-.687-2.419-2.061-2.419-1.431 0-2.232 1.033-2.232 2.774v8.32h-4.293V14.947h4.293v1.356a4.432 4.432 0 011.699-1.387 4.278 4.278 0 012.136-.382 4.147 4.147 0 012.122.464 4.307 4.307 0 011.626 1.483 4.743 4.743 0 011.831-1.525 4.59 4.59 0 012.318-.422c3.286.002 5.439 2.42 5.439 6.109zm3.631-5.786c1.759 0 3.186-1.47 3.186-3.284 0-1.814-1.427-3.285-3.186-3.285s-3.186 1.47-3.186 3.285c0 1.814 1.427 3.284 3.186 3.284z"/></g><defs><clipPath id="clip0_3409_3632"><path fill="#fff" transform="translate(0 .566)" d="M0 0h196.967v40H0z"/></clipPath></defs></svg>