<svg width="53" height="49" fill="none" xmlns="http://www.w3.org/2000/svg"><path d="M29.987 4.343c0 1.43-.861 2.658-2.093 3.196v3.08h15.337a1.4 1.4 0 011.4 1.4v22.305a1.4 1.4 0 01-1.4 1.4h-9.757v4.184h2.784a1.4 1.4 0 011.4 1.4v5.568a1.4 1.4 0 01-1.4 1.4H16.742a1.4 1.4 0 01-1.4-1.4v-5.568a1.4 1.4 0 011.4-1.4h2.785v-4.184H9.769a1.4 1.4 0 01-1.4-1.4V12.019a1.4 1.4 0 011.4-1.4h15.336v-3.08a3.488 3.488 0 114.882-3.196zm-7.67 18.828a2.79 2.79 0 11-5.58 0 2.79 2.79 0 015.58 0zm11.157 2.79a2.79 2.79 0 100-5.58 2.79 2.79 0 000 5.58zM47.42 28.75a5.579 5.579 0 000-11.157V28.75zm-41.841 0a5.579 5.579 0 110-11.158V28.75z" fill-rule="evenodd" clip-rule="evenodd" fill="#6B7CFF"/></svg>