<svg width="72" height="73" fill="none" xmlns="http://www.w3.org/2000/svg"><rect y=".566" width="72" height="72" rx="36" fill="#F4F5F7"/><path fill-rule="evenodd" clip-rule="evenodd" d="M45.415 24.342l-1.972 1.972-1.143 1.142v-2.59h-8.1c-6.462 0-11.7 5.238-11.7 11.7 0 2.974 1.11 5.69 2.938 7.754l-1.912 1.912a14.347 14.347 0 01-3.726-9.666c0-7.953 6.447-14.4 14.4-14.4h13.39l-2.176 2.176z" fill="url(#paint0_radial_3409_3764)"/><path d="M42.006 39.672l-3.182-1.238s-.607-.235-.842-.466c-.151-.15-.141-.5-.007-.948.134-.448 1.765-2.27 1.765-3.926 0-2.556-1.683-4.628-3.758-4.628-2.073 0-3.755 2.073-3.755 4.628 0 1.586 1.454 3.476 1.633 3.818.18.345.135.868-.005 1.026-.212.238-.99.477-.99.477l-2.87 1.276c-.67.24-1.195.87-1.195 1.584v.337c0 .778.631 1.254 1.408 1.254H41.79c.776 0 1.41-.477 1.41-1.254v-.337c.001-.713-.524-1.363-1.194-1.603z" fill="#1D2130"/><path d="M37.8 48.266c6.462 0 11.7-5.238 11.7-11.7 0-2.974-1.11-5.69-2.938-7.754l1.912-1.912a14.347 14.347 0 013.726 9.666c0 7.953-6.447 14.4-14.4 14.4H24.408l5.292-5.292v2.592h8.1z" fill="url(#paint1_radial_3409_3764)"/><defs><radialGradient id="paint0_radial_3409_3764" cx="0" cy="0" r="1" gradientUnits="userSpaceOnUse" gradientTransform="rotate(60.786 35.415 -13.849) scale(133.427 436.828)"><stop offset=".175" stop-color="#D798E1"/><stop offset=".276" stop-color="#9B9FFF"/><stop offset=".499" stop-color="#AED3FF"/><stop offset=".565" stop-color="#C9D4EF"/><stop offset=".657" stop-color="#CACFFA"/></radialGradient><radialGradient id="paint1_radial_3409_3764" cx="0" cy="0" r="1" gradientUnits="userSpaceOnUse" gradientTransform="rotate(60.785 33.684 -7.554) scale(133.429 436.838)"><stop offset=".175" stop-color="#D798E1"/><stop offset=".276" stop-color="#9B9FFF"/><stop offset=".499" stop-color="#AED3FF"/><stop offset=".565" stop-color="#C9D4EF"/><stop offset=".657" stop-color="#CACFFA"/></radialGradient></defs></svg>