<svg width="56" height="57" fill="none" xmlns="http://www.w3.org/2000/svg"><path fill-rule="evenodd" clip-rule="evenodd" d="M33.8 21.843V5.95c-.45-.152-.913-.29-1.376-.42a22.41 22.41 0 00-5.792-.764c-.858 0-1.7.053-2.532.15a22.387 22.387 0 00-5.818 1.471S33.394 21.289 33.8 21.843zm12.17-5.982c.24.416.467.838.678 1.261L35.366 28.36c.113-.674 0-21.855 0-21.855a22.296 22.296 0 015.157 3.056 22.05 22.05 0 011.896 1.68 22.222 22.222 0 013.552 4.62zm-18.068 2.54L16.622 7.16c-.43.215-.855.44-1.267.678a22.175 22.175 0 00-4.64 3.535 21.625 21.625 0 00-1.685 1.89 22.215 22.215 0 00-3.07 5.14s21.261-.111 21.942-.003zm-6.564 1.597H5.386a22.07 22.07 0 00-1.185 7.14c0 .854.052 1.695.15 2.522.23 2.029.737 3.971 1.479 5.793 0 0 14.95-15.058 15.508-15.455zm-14.8 17.1l11.275-11.24c-.109.673.004 21.519.006 21.857v.004a22.076 22.076 0 01-5.156-3.054 22.398 22.398 0 01-1.897-1.679 22.008 22.008 0 01-3.551-4.625 21.38 21.38 0 01-.678-1.263zM38.58 36.05a11.194 11.194 0 00-4.941 8.383l-8.45-8.418c.387.064 7.397.055 13.39.035zm4.22-1.707H31.86c.559-.402 15.511-15.459 15.511-15.459a22.066 22.066 0 011.478 5.795c.096.828.151 1.67.151 2.525 0 2-.273 3.927-.773 5.768a24.37 24.37 0 01-.415 1.371h-1.01a11.26 11.26 0 00-4.003 0zm-9.117 12.39c.065.532.167 1.053.304 1.56-1.558.55-3.193.93-4.891 1.122-.828.097-1.673.15-2.528.15a22.08 22.08 0 01-5.792-.77 22.563 22.563 0 01-1.375-.416V32.486c.332.462 10.674 10.684 14.282 14.247z" fill="#6B7CFF"/><circle cx="44.8" cy="45.366" r="8.4" fill="#6B7CFF"/><path fill-rule="evenodd" clip-rule="evenodd" d="M49.152 42.729l-.99-.99-4.95 4.95-2.475-2.475-.99.99 3.465 3.464 5.94-5.94z" fill="#FAFBFF"/></svg>