<svg width="72" height="73" fill="none" xmlns="http://www.w3.org/2000/svg"><rect y=".566" width="72" height="72" rx="36" fill="#F4F5F7"/><path fill-rule="evenodd" clip-rule="evenodd" d="M33.506 36a7.65 7.65 0 01-4.756-7.084 7.648 7.648 0 017.65-7.65 7.648 7.648 0 017.65 7.65A7.65 7.65 0 0139.294 36a12.598 12.598 0 016.758 4.166H41.72l-.149.004c-1.378.076-2.472 1.204-2.472 2.584v5.512H23.8c0-5.963 4.142-10.958 9.706-12.266zm6.936-5.237c-.466 1.824-2.132 3.103-4.042 3.103-1.91 0-3.575-1.279-4.042-3.103l2.02-.497a2.077 2.077 0 002.022 1.556c.957 0 1.79-.642 2.022-1.556l2.02.497z" fill="#1D2130"/><path fill-rule="evenodd" clip-rule="evenodd" d="M40.9 43.48c0-.836.678-1.514 1.515-1.514h11.37c.837 0 1.515.678 1.515 1.514v6.197c0 .837-.678 1.515-1.514 1.515H42.415a1.514 1.514 0 01-1.515-1.515V43.48zm4.292 7.712h5.816c-.374 0-1.287.617-1.991 1.137a1.483 1.483 0 01-1.794-.049c-.64-.509-1.488-1.088-2.03-1.088zm-.483-3.69c.535 0 .969-.414.969-.923 0-.51-.434-.923-.97-.923-.535 0-.969.413-.969.923s.434.922.97.922zm3.392 0c.535 0 .97-.414.97-.923 0-.51-.435-.923-.97-.923-.535 0-.97.413-.97.923s.435.922.97.922zm4.36-.923c0 .51-.433.922-.968.922-.536 0-.97-.413-.97-.922 0-.51.434-.923.97-.923.535 0 .969.413.969.923z" fill="url(#paint0_radial_3409_3743)"/><defs><radialGradient id="paint0_radial_3409_3743" cx="0" cy="0" r="1" gradientUnits="userSpaceOnUse" gradientTransform="matrix(33.74353 51.49487 -181.42621 118.88486 33.772 15.361)"><stop offset=".175" stop-color="#D798E1"/><stop offset=".276" stop-color="#9B9FFF"/><stop offset=".499" stop-color="#AED3FF"/><stop offset=".565" stop-color="#C9D4EF"/><stop offset=".657" stop-color="#CACFFA"/></radialGradient></defs></svg>