<svg width="57" height="57" fill="none" xmlns="http://www.w3.org/2000/svg"><g fill-rule="evenodd" clip-rule="evenodd"><path d="M6.1 6.166a2.8 2.8 0 00-2.8 2.8v22.4a2.8 2.8 0 002.8 2.8h36.4a2.8 2.8 0 002.8-2.8v-22.4a2.8 2.8 0 00-2.8-2.8H6.1zm26.6 28H15.9c1.836 0 4.877 2.409 6.752 4.067.952.841 2.391.897 3.383.104 2.072-1.66 5.414-4.17 6.664-4.17z" fill="#6B7CFF"/><path d="M14.01 22.966l.662-1.94h3.897l.646 1.94h2.233l-4.003-10.965h-1.68l-3.988 10.965h2.233zM18 19.224h-2.727l1.386-3.989L18 19.224zm18.9-6.058H24.3v1.4h12.6v-1.4zm0 7H24.3v1.4h12.6v-1.4zm-25.2 7h25.2v1.4H11.7v-1.4z" fill="#fff"/><path d="M20.1 38.962c.933.681 1.83 1.432 2.552 2.07.952.842 2.391.898 3.383.104 2.064-1.653 5.39-4.152 6.65-4.17H45.3a2.8 2.8 0 002.8-2.8v-9.8h3.36a2.24 2.24 0 012.24 2.24v18.253a2.24 2.24 0 01-2.24 2.24H22.34a2.24 2.24 0 01-2.24-2.24v-5.897zm10.08 8.137h13.44c-.998 0-3.661 2.029-5.32 3.376-.797.647-1.964.602-2.728-.084-1.502-1.346-3.927-3.292-5.392-3.292z" fill="#6B7CFF"/></g></svg>