<svg width="48" height="49" fill="none" xmlns="http://www.w3.org/2000/svg"><g clip-path="url(#clip0_3409_3545)" fill="#6B7CFF"><path d="M24 .566C13.881.566 5.647 8.799 5.647 18.919v16.94a4.24 4.24 0 004.236 4.236 4.24 4.24 0 004.235-4.235V21.742a4.24 4.24 0 00-4.235-4.235 4.19 4.19 0 00-1.353.241C9.133 9.732 15.834 3.39 24 3.39c8.163 0 14.862 6.337 15.47 14.348a4.159 4.159 0 00-1.352-.23 4.24 4.24 0 00-4.235 4.235V35.86a4.24 4.24 0 004.235 4.236 4.19 4.19 0 001.412-.26v1.671c0 .78-.634 1.412-1.412 1.412H27.976c-.585-1.64-2.137-2.823-3.976-2.823a4.24 4.24 0 00-4.235 4.235A4.24 4.24 0 0024 48.566c1.838 0 3.39-1.184 3.976-2.824h10.142a4.24 4.24 0 004.235-4.235V18.92C42.353 8.799 34.12.566 24 .566zM45.177 20.59v16.422c1.64-.585 2.823-2.137 2.823-3.976v-8.47c0-1.838-1.184-3.39-2.823-3.975zM0 24.566v8.47c0 1.839 1.184 3.391 2.823 3.976V20.59C1.184 21.175 0 22.728 0 24.566z"/></g><defs><clipPath id="clip0_3409_3545"><path fill="#fff" transform="translate(0 .566)" d="M0 0h48v48H0z"/></clipPath></defs></svg>