<svg width="48" height="49" fill="none" xmlns="http://www.w3.org/2000/svg"><g clip-path="url(#clip0_3409_3529)"><path fill-rule="evenodd" clip-rule="evenodd" d="M43.094 8.338L24.719.71a1.875 1.875 0 00-1.438 0L4.906 8.34c-.7.29-1.156.973-1.156 1.731v9.274a31.4 31.4 0 0019.541 29.083 1.88 1.88 0 001.418 0A31.4 31.4 0 0044.25 19.344V10.07c0-.758-.456-1.441-1.156-1.732zm-21.5 17.825l9.356-9.817a2.105 2.105 0 013.079 0c.85.892.85 2.338 0 3.23L23.133 31.008a2.105 2.105 0 01-3.079 0l-6.083-6.383a2.364 2.364 0 010-3.23 2.105 2.105 0 013.078 0l4.545 4.768z" fill="#6B7CFF"/></g><defs><clipPath id="clip0_3409_3529"><path fill="#fff" transform="translate(0 .566)" d="M0 0h48v48H0z"/></clipPath></defs></svg>