<svg width="48" height="48" fill="none" xmlns="http://www.w3.org/2000/svg"><circle cx="24" cy="24" r="24" fill="#6B7CFF"/><path d="M17.63 15.833c.07 1.039.245 2.054.525 3.022l-1.4 1.4a17.298 17.298 0 01-.887-4.422h1.762zm11.503 14.024c.992.28 2.007.455 3.034.525v1.738a17.997 17.997 0 01-4.434-.875l1.4-1.388zM18.75 13.5h-4.083a1.17 1.17 0 00-1.167 1.167c0 10.955 8.878 19.833 19.833 19.833a1.17 1.17 0 001.167-1.167v-4.071a1.17 1.17 0 00-1.167-1.167c-1.446 0-2.858-.233-4.165-.665a.978.978 0 00-.361-.058c-.304 0-.595.116-.829.338l-2.566 2.567a17.674 17.674 0 01-7.689-7.689l2.567-2.566a1.17 1.17 0 00.292-1.19 13.253 13.253 0 01-.665-4.165A1.17 1.17 0 0018.75 13.5z" fill="#fff"/></svg>