<svg width="56" height="56" fill="none" xmlns="http://www.w3.org/2000/svg"><g fill-rule="evenodd" clip-rule="evenodd" fill="#6B7CFF"><path d="M11.2 16.8c0 .412-.06.81-.17 1.186l7.364 4.252c-.48.8-.865 1.664-1.135 2.578l-7.884-4.552A4.2 4.2 0 1111.2 16.8zm15.4 22.313a11.312 11.312 0 002.8 0v7.326A4.202 4.202 0 0128 54.6a4.2 4.2 0 01-1.4-8.16v-7.327zm12.14-14.297a11.138 11.138 0 00-1.134-2.578l7.364-4.252a4.2 4.2 0 111.655 2.278l-7.884 4.552z"/><path d="M29.4 13.844a6.3 6.3 0 10-2.8 0v5.872a8.402 8.402 0 00-5.448 13.151l-5.899 5.899a6.3 6.3 0 101.98 1.98l5.9-5.9A8.362 8.362 0 0028 36.4a8.362 8.362 0 004.867-1.553l5.899 5.9a6.3 6.3 0 101.98-1.98l-5.9-5.9A8.402 8.402 0 0029.4 19.716v-5.872z"/></g></svg>