<svg width="56" height="56" fill="none" xmlns="http://www.w3.org/2000/svg"><path fill-rule="evenodd" clip-rule="evenodd" d="M16.8 5.6H7A1.4 1.4 0 005.6 7v9.8A1.4 1.4 0 007 18.2h1.4a1.4 1.4 0 001.4-1.4v-7h7a1.4 1.4 0 001.4-1.4V7a1.4 1.4 0 00-1.4-1.4zm22.4 0H49A1.4 1.4 0 0150.4 7v9.8a1.4 1.4 0 01-1.4 1.4h-1.4a1.4 1.4 0 01-1.4-1.4v-7h-7a1.4 1.4 0 01-1.4-1.4V7a1.4 1.4 0 011.4-1.4zM16.8 51.8H7a1.4 1.4 0 01-1.4-1.4v-9.8A1.4 1.4 0 017 39.2h1.4a1.4 1.4 0 011.4 1.4v7h7a1.4 1.4 0 011.4 1.4v1.4a1.4 1.4 0 01-1.4 1.4zm22.4 0H49a1.4 1.4 0 001.4-1.4v-9.8a1.4 1.4 0 00-1.4-1.4h-1.4a1.4 1.4 0 00-1.4 1.4v7h-7a1.4 1.4 0 00-1.4 1.4v1.4a1.4 1.4 0 001.4 1.4z" fill="#6B7CFF"/><path d="M39.248 29.79c-.512 1.806-1.048 3.679-1.35 5.396-.442 2.586-.28 4.793-.093 6.042L24.772 46.2v-6.265c0-.335-.14-.647-.373-.87a1.314 1.314 0 00-.908-.356h-4.7c-.536 0-.978-.402-.978-.892v-4.995c0-.646-.512-1.181-1.187-1.226l-1.513-.111c-1.28-.09-1.722-.179-1.815-.201-.698-.312-.698-.736-.698-.87 0-.044.14-1.048 3.351-4.66l.116-.133c.35-.401.35-.803.35-1.56v-.358c.023-.089.023-.156.023-.245.023-5.596 5.934-10.791 12.381-10.858h.14c6.284 0 11.636 4.883 11.636 10.635.047 1.717-.675 4.17-1.35 6.555z" fill="#6B7CFF"/><path fill-rule="evenodd" clip-rule="evenodd" d="M20.797 22.317V26.6h-1.362v-6.978h1.215l2.763 4.273v-4.273h1.363V26.6H23.56l-2.763-4.283zm10.133 3.068V26.6h-4.528v-6.978h1.363v5.763h3.165zM33.4 26.6v-2.627h1.342c.36 0 .681-.057.965-.171a2.14 2.14 0 00.725-.47c.2-.2.352-.432.456-.696a2.26 2.26 0 00.157-.838 2.26 2.26 0 00-.157-.838 2.025 2.025 0 00-.456-.696 2.14 2.14 0 00-.725-.47 2.569 2.569 0 00-.965-.172h-2.705V26.6H33.4zm0-3.852h1.273c.314 0 .56-.086.74-.26.18-.172.27-.403.27-.69 0-.287-.09-.52-.27-.696-.18-.176-.426-.265-.74-.265H33.4v1.912z" fill="#fff"/></svg>