<svg width="56" height="56" fill="none" xmlns="http://www.w3.org/2000/svg"><g fill-rule="evenodd" clip-rule="evenodd" fill="#6B7CFF"><path d="M17.898 27.12A11.9 11.9 0 0110.5 16.1c0-6.575 5.325-11.9 11.9-11.9s11.9 5.325 11.9 11.9a11.9 11.9 0 01-7.398 11.02c4.178.982 7.84 3.3 10.512 6.48h-6.737l-.231.006c-2.145.119-3.846 1.873-3.846 4.02V46.2H2.8c0-9.276 6.443-17.046 15.098-19.08zm10.789-8.146c-.725 2.837-3.316 4.826-6.288 4.826-2.97 0-5.562-1.989-6.287-4.826l3.143-.774c.359 1.422 1.656 2.421 3.145 2.421 1.488 0 2.785-.998 3.144-2.421l3.143.774z"/><path d="M29.4 37.914c0-.836.678-1.514 1.515-1.514h19.37c.837 0 1.515.678 1.515 1.514v11.323c0 .837-.678 1.515-1.514 1.515h-5.168c-.682.006-2.496 1.307-3.607 2.155a1.426 1.426 0 01-1.777-.054c-1.006-.848-2.653-2.095-3.65-2.101h-5.17a1.514 1.514 0 01-1.514-1.515V37.914zm5.923 7.097c.833 0 1.508-.643 1.508-1.435 0-.793-.675-1.435-1.508-1.435s-1.508.642-1.508 1.435c0 .792.675 1.435 1.508 1.435zm5.277 0c.833 0 1.508-.643 1.508-1.435 0-.793-.675-1.435-1.508-1.435-.832 0-1.507.642-1.507 1.435 0 .792.675 1.435 1.507 1.435zm6.785-1.435c0 .792-.675 1.435-1.508 1.435s-1.508-.643-1.508-1.435c0-.793.675-1.435 1.508-1.435.832 0 1.508.642 1.508 1.435z"/></g></svg>