<svg width="56" height="56" fill="none" xmlns="http://www.w3.org/2000/svg"><g fill-rule="evenodd" clip-rule="evenodd" fill="#6B7CFF"><path d="M27.798 2.8l4.32 2.1 1.782.928c.63.318 1.205.576 2.243.967l1.219.446c1.604.593 2.734.783 3.2.842l.152.017.244.011.204.014L49 8.75v24.01C49 44.261 32.25 53.2 28 53.2c-4.929 0-20.591-9.189-20.992-20.017L7 32.762V8.714l5.619-.39a133.35 133.35 0 001.963-.162l.557-.057c.4-.054 1.721-.267 3.807-.929l.634-.235a34.937 34.937 0 003.457-1.534l.66-.354L27.798 2.8zm.12 4.238l-2.213 1.197-.444.244a27.76 27.76 0 01-.633.326l-.802.389a40.921 40.921 0 01-3.895 1.59 34.08 34.08 0 01-3.43.895l-.425.082c-.469.086-.807.134-1.01.157l-.158.014-4.408.322v20.543l.008.371c.177 3.958 3.167 7.718 7.838 11.241 3.578 2.699 7.846 4.968 9.654 4.968 1.748 0 6.027-2.285 9.596-4.964 4.71-3.534 7.718-7.284 7.896-11.245l.008-.371V12.269l-4.229-.334-.22-.008-.183-.012-.415-.043a13.078 13.078 0 01-.496-.071c-.94-.154-2.013-.42-3.203-.824l-1.242-.434-.873-.326c-.856-.33-1.65-.673-2.373-1.017l-.744-.367-.532-.279-.138-.075-.292-.17-.262-.141-2.38-1.13z"/><path d="M35.28 13.426c3.574 1.3 5.77 1.3 5.77 1.3l1.65.131v17.94c0 6.631-13.191 13.78-14.7 13.78-1.65 0-14.7-7.149-14.7-13.78v-17.94l1.785-.13s2.06-.13 5.77-1.3c3.71-1.299 6.182-2.73 6.182-2.73l.963-.52 1.097.52s2.337 1.431 6.183 2.73zM20.168 29.417l6.868 5.98 10.304-12.22-2.472-2.21-8.243 9.75-4.396-3.77-2.061 2.47z"/></g></svg>