<svg width="49" height="48" fill="none" xmlns="http://www.w3.org/2000/svg"><path d="M19.16 18.16a.5.5 0 00-.5-.5.52.52 0 00-.5.5c0 .56 1 .56 1 0zm11.18 11.18a.5.5 0 00-.5.5c0 .54 1 .54 1 0a.5.5 0 00-.5-.5z" fill="#6B7CFF"/><path fill-rule="evenodd" clip-rule="evenodd" d="M41.66 16.8a8 8 0 001.5 2 8 8 0 012.78 5.2 8 8 0 01-2.68 5.1 7.997 7.997 0 00-1.5 2 7.757 7.757 0 00-.32 2.56 7.74 7.74 0 01-1.68 5.5 7.74 7.74 0 01-5.5 1.68 7.757 7.757 0 00-2.56.32 8.397 8.397 0 00-2 1.5 7.86 7.86 0 01-5.2 2.78 7.86 7.86 0 01-5.1-2.68 8.4 8.4 0 00-2-1.5 7.757 7.757 0 00-2.56-.32 7.74 7.74 0 01-5.5-1.68 7.74 7.74 0 01-1.68-5.5 7.76 7.76 0 00-.32-2.56 7.998 7.998 0 00-1.5-2A8 8 0 013.06 24a8 8 0 012.68-5.1 8.002 8.002 0 001.5-2 7.76 7.76 0 00.32-2.56 7.74 7.74 0 011.68-5.5 7.74 7.74 0 015.5-1.68 7.76 7.76 0 002.56-.32 8.403 8.403 0 002-1.5 7.86 7.86 0 015.2-2.78 7.86 7.86 0 015.1 2.68 8.399 8.399 0 002 1.5 7.76 7.76 0 002.56.32 7.74 7.74 0 015.5 1.68 7.74 7.74 0 011.68 5.5c-.037.865.071 1.73.32 2.56zm-23-3.14a4.5 4.5 0 100 9 4.5 4.5 0 000-9zm.58 18.5a2 2 0 01-1.4.58A2 2 0 0116.5 32a2 2 0 010-2.82L29.76 16a2 2 0 112.74 2.74L19.24 32.16zm6.6-2.24a4.5 4.5 0 004.5 4.5v-.08a4.5 4.5 0 004.5-4.42 4.5 4.5 0 00-9 0z" fill="#6B7CFF"/></svg>