<svg width="49" height="48" fill="none" xmlns="http://www.w3.org/2000/svg"><g fill="#6B7CFF"><path d="M44.371 10.28v15.38a6.307 6.307 0 01-2.213 4.84 5.971 5.971 0 01-3.77 1.38c-.33.03-.665.03-.996 0l-18.945-3.42V7.5l18.945-3.36a5.83 5.83 0 014.766 1.3 6.368 6.368 0 012.213 4.84zM14.459 8.2v19.56l-1.994-.36-1.994-.34-.997-.18a5.976 5.976 0 01-2.992-1.42 6.39 6.39 0 01-1.994-4.72v-5.52a6.136 6.136 0 014.986-6.14l4.985-.88z"/><path d="M16.453 28.12V39c0 2.761-2.232 5-4.985 5a4.993 4.993 0 01-4.986-5V26a1.605 1.605 0 010-.54 5.976 5.976 0 002.912 1.42l.997.18 1.994.34 4.068.72z"/></g></svg>